<?xml version="1.0" standalone="no"?>
<!DOCTYPE svg PUBLIC "-//W3C//DTD SVG 20010904//EN"
 "http://www.w3.org/TR/2001/REC-SVG-20010904/DTD/svg10.dtd">
<svg version="1.0" xmlns="http://www.w3.org/2000/svg"
 width="698.000000pt" height="382.000000pt" viewBox="0 0 698.000000 382.000000"
 preserveAspectRatio="xMidYMid meet">

<g transform="translate(0.000000,382.000000) scale(0.100000,-0.100000)"
fill="#000000" stroke="none">
<path d="M5540 3573 c0 -10 -64 -40 -105 -52 -43 -11 -33 -50 19 -76 8 -3 7
-7 -1 -11 -7 -3 -29 -17 -49 -30 -20 -14 -49 -27 -63 -29 -14 -2 -37 -7 -51
-13 -14 -5 -45 -18 -70 -27 -25 -10 -58 -23 -75 -31 -16 -7 -37 -15 -45 -18
-8 -3 -22 -10 -30 -15 -24 -14 -169 -81 -178 -81 -4 -1 -20 -12 -37 -26 l-30
-26 60 6 c126 13 301 39 480 72 92 16 161 18 170 5 6 -11 -56 -31 -97 -31 -16
0 -28 -4 -28 -8 0 -5 55 -12 123 -15 67 -3 149 -13 182 -22 33 -8 114 -22 180
-31 288 -37 420 -94 474 -208 52 -107 15 -195 -152 -364 -127 -128 -134 -133
-148 -92 -6 17 -20 35 -30 41 -25 13 -24 32 5 88 50 97 58 124 59 195 1 58 -3
79 -21 110 -12 20 -22 46 -22 58 0 16 -5 19 -22 15 -11 -3 -46 1 -77 9 -67 17
-126 18 -242 2 -82 -11 -89 -13 -89 -34 0 -36 21 -74 44 -79 12 -2 53 -7 91
-10 39 -4 76 -12 83 -18 7 -6 30 -13 50 -16 35 -6 37 -8 40 -48 2 -31 -3 -51
-20 -77 -21 -31 -25 -33 -43 -20 -25 19 -60 18 -79 -2 -20 -20 -21 -68 -1 -84
34 -28 17 -56 -102 -169 -80 -75 -125 -111 -141 -111 -37 0 -62 -18 -62 -45 0
-18 -24 -44 -102 -108 -57 -47 -123 -111 -147 -143 -53 -69 -96 -108 -115
-101 -9 4 -15 41 -19 128 -6 104 -5 124 8 132 22 12 18 25 -7 29 -20 3 -24 12
-34 83 -14 101 -24 128 -93 245 -31 52 -62 107 -69 121 -27 52 -134 186 -214
266 -87 89 -211 182 -325 245 -40 22 -73 45 -74 51 -1 7 0 29 1 50 1 31 -4 43
-30 67 -47 44 -85 41 -135 -10 -33 -33 -45 -40 -65 -35 -84 22 -216 37 -357
42 -314 11 -549 -43 -798 -185 -196 -111 -342 -252 -509 -492 -29 -43 -87 -85
-186 -136 -30 -15 -68 -38 -85 -49 -16 -12 -70 -43 -120 -70 -103 -55 -251
-150 -319 -206 -19 -16 -118 -79 -123 -79 -7 0 -109 -61 -197 -118 -99 -64
-197 -141 -301 -236 -49 -46 -112 -102 -140 -126 -82 -70 -283 -258 -385 -360
-113 -112 -230 -281 -217 -314 3 -6 16 -18 31 -25 25 -14 28 -12 109 72 45 48
90 87 98 87 22 0 36 -40 44 -123 8 -79 -7 -107 -57 -107 -42 0 -45 -24 -8 -62
30 -32 31 -36 25 -93 -4 -42 -1 -73 9 -103 9 -24 14 -69 13 -102 -2 -71 9 -86
76 -99 27 -5 58 -18 71 -30 49 -47 227 -98 351 -102 116 -3 501 20 580 35 278
53 583 126 619 149 12 8 30 16 41 20 11 3 45 15 75 27 60 23 117 42 290 96 63
20 135 42 159 50 44 14 46 14 118 -20 40 -19 73 -39 73 -45 0 -17 -59 -31 -86
-21 -37 14 -41 13 -52 -18 -10 -28 -36 -39 -317 -127 -127 -40 -319 -89 -415
-106 -30 -6 -70 -15 -88 -21 -19 -5 -57 -13 -85 -18 -49 -7 -73 -12 -194 -42
-27 -6 -77 -14 -113 -18 -36 -4 -74 -11 -85 -17 -11 -6 -47 -14 -80 -18 -33
-4 -85 -13 -115 -21 -30 -8 -77 -14 -105 -14 -60 0 -83 -11 -62 -29 10 -7 50
-11 113 -10 55 1 109 -1 122 -5 12 -4 47 -2 78 4 30 6 117 16 192 22 75 5 165
12 199 15 47 3 67 1 87 -12 35 -23 85 -13 121 25 20 20 39 30 59 30 17 0 49 7
71 14 22 8 67 17 100 21 33 4 65 11 70 15 6 4 33 14 60 23 28 9 82 26 120 38
39 12 97 23 129 24 51 1 61 5 78 28 15 21 28 27 56 27 19 0 43 6 51 14 18 15
190 75 293 101 63 17 73 17 150 1 132 -26 393 -22 544 8 391 78 699 279 917
598 25 36 55 85 67 108 28 55 60 83 134 121 33 17 66 39 73 49 7 9 27 20 45
23 30 5 137 59 213 107 17 11 39 24 50 29 11 5 51 30 88 55 38 25 71 46 73 46
3 0 39 26 81 57 73 55 83 82 19 50 -104 -51 -380 -189 -394 -197 -89 -47 -234
-111 -248 -108 -53 10 0 73 109 132 45 24 145 76 222 116 211 110 257 140 266
173 4 16 13 35 20 43 13 16 65 19 74 4 10 -17 96 32 320 183 183 123 418 336
473 429 22 37 46 44 71 19 26 -26 63 -27 84 -3 34 37 12 102 -34 102 -29 0
-33 22 -15 84 19 63 21 154 5 211 -34 125 -140 278 -195 281 -16 1 -34 2 -41
3 -7 0 -18 13 -25 28 -12 26 -22 30 -148 54 -117 23 -130 27 -100 33 50 10
460 1 550 -12 41 -6 101 -19 132 -28 31 -9 64 -14 73 -10 15 5 14 10 -5 44
-32 56 -98 96 -265 159 -22 8 -48 19 -57 24 -68 35 -132 50 -238 57 -150 8
-288 5 -342 -9 -24 -6 -83 -17 -133 -24 -101 -16 -182 -32 -236 -47 -44 -12
-62 -4 -53 24 9 30 -5 88 -21 88 -8 0 -15 -3 -15 -7z m620 -188 c0 -8 -4 -15
-10 -15 -5 0 -10 7 -10 15 0 8 5 15 10 15 6 0 10 -7 10 -15z m-780 -55 c0 -13
-7 -20 -20 -20 -13 0 -20 7 -20 20 0 13 7 20 20 20 13 0 20 -7 20 -20z m485
-60 c-28 -12 -73 -12 -80 0 -4 6 14 10 47 9 39 0 48 -3 33 -9z m-192 -25 c-4
-13 -123 -19 -123 -6 0 10 47 19 95 17 17 0 29 -5 28 -11z m312 -849 l35 -24
-27 -22 c-16 -11 -54 -41 -87 -65 -32 -24 -93 -77 -136 -117 -79 -74 -189
-158 -208 -158 -7 0 -9 14 -5 38 4 25 15 45 37 62 49 39 247 221 291 267 22
24 45 43 52 43 7 0 28 -11 48 -24z m-3695 7 c0 -4 -11 -43 -24 -87 -13 -45
-31 -116 -40 -158 -17 -74 -19 -78 -69 -116 -29 -22 -68 -50 -88 -63 -20 -13
-62 -42 -95 -63 -52 -35 -140 -99 -257 -188 -35 -27 -40 -28 -73 -18 -54 18
-121 7 -153 -24 -24 -24 -26 -34 -26 -104 l0 -78 -68 -75 c-38 -41 -84 -100
-104 -131 -20 -32 -39 -58 -43 -58 -22 0 -50 -44 -50 -80 0 -35 -19 -70 -39
-70 -10 0 -13 -111 -3 -124 5 -6 12 -35 16 -64 11 -83 45 -159 99 -219 54 -59
83 -77 158 -99 34 -10 47 -19 43 -28 -8 -22 -24 -25 -152 -32 -132 -7 -294 8
-330 32 -23 15 -23 16 -6 41 16 25 16 27 0 39 -24 17 -53 6 -60 -22 -8 -32
-20 -30 -50 8 -43 58 -55 148 -19 148 7 0 25 11 39 25 28 28 26 53 -7 86 -25
25 -25 88 -1 120 10 13 27 42 38 64 48 95 70 132 96 160 15 17 28 35 28 41 0
16 148 170 445 463 331 327 411 408 457 456 50 54 162 138 283 212 22 13 55
17 55 6z m2710 -378 c0 -8 -4 -15 -10 -15 -5 0 -10 7 -10 15 0 8 5 15 10 15 6
0 10 -7 10 -15z m540 -30 c0 -7 -16 -25 -35 -39 -37 -28 -45 -53 -20 -62 20
-8 29 -42 15 -59 -14 -16 -60 -21 -60 -6 0 5 -7 17 -16 25 -18 18 -21 17 -188
-109 -59 -44 -112 -80 -119 -80 -7 0 -15 20 -19 45 -4 25 -10 57 -13 71 -10
38 18 63 64 55 40 -6 46 -3 151 69 39 28 79 55 87 60 9 6 39 25 66 42 48 30
52 31 69 16 10 -9 18 -22 18 -28z m-3336 -227 c2 -7 11 -58 21 -113 36 -200
146 -467 249 -603 25 -33 46 -62 46 -65 0 -16 -154 -56 -320 -83 -47 -8 -107
-18 -135 -23 -27 -6 -80 -10 -116 -10 -37 -1 -83 -8 -102 -16 -47 -19 -147
-19 -194 0 -19 8 -50 15 -67 15 -36 0 -90 30 -105 59 -6 11 -14 46 -17 78 -5
49 -2 68 20 122 15 34 31 68 37 75 5 6 26 34 47 62 110 149 268 289 509 450
96 65 121 74 127 52z m-1287 -349 c15 -15 5 -47 -18 -54 -26 -8 -39 2 -39 30
0 31 35 46 57 24z m-188 -210 c-27 -34 -59 -52 -59 -32 0 11 75 80 83 75 4 -2
-6 -21 -24 -43z"/>
<path d="M920 726 c0 -21 21 -31 30 -15 5 7 6 17 4 21 -9 14 -34 9 -34 -6z"/>
<path d="M2238 1284 c-10 -9 4 -44 17 -44 15 0 28 27 19 41 -6 10 -28 12 -36
3z"/>
<path d="M3850 3480 c0 -11 7 -20 15 -20 8 0 15 9 15 20 0 11 -7 20 -15 20 -8
0 -15 -9 -15 -20z"/>
<path d="M4125 3470 c-3 -5 3 -10 14 -10 12 0 21 5 21 10 0 6 -6 10 -14 10 -8
0 -18 -4 -21 -10z"/>
<path d="M4530 3200 c0 -25 4 -30 24 -30 29 0 47 37 25 51 -30 19 -49 10 -49
-21z"/>
<path d="M5603 3123 c-18 -7 -16 -58 2 -73 18 -15 64 -5 72 15 3 8 2 26 -1 40
-5 19 -13 25 -34 24 -15 0 -33 -3 -39 -6z"/>
<path d="M4820 3040 c0 -22 20 -26 38 -8 19 19 14 28 -13 28 -18 0 -25 -5 -25
-20z"/>
<path d="M5277 2872 c-22 -24 -13 -32 38 -32 22 0 46 -5 53 -12 14 -14 26 10
20 39 -5 27 -88 31 -111 5z"/>
<path d="M6864 2595 c-20 -31 -10 -63 23 -76 37 -14 73 12 73 51 0 51 -67 69
-96 25z"/>
<path d="M5240 2525 c-18 -21 -4 -47 22 -43 29 4 35 34 10 47 -15 8 -23 7 -32
-4z"/>
<path d="M6337 2083 c-10 -10 -8 -41 3 -48 5 -3 19 -1 30 5 16 9 18 15 10 30
-11 20 -31 26 -43 13z"/>
<path d="M246 904 c-3 -8 -1 -24 4 -34 7 -14 6 -31 -6 -62 -25 -69 -27 -78
-16 -78 19 0 92 90 92 113 0 13 -13 35 -28 50 -33 31 -38 33 -46 11z"/>
<path d="M436 604 c-9 -8 -16 -22 -16 -30 0 -16 42 -29 65 -20 21 8 19 43 -4
56 -25 13 -27 13 -45 -6z"/>
<path d="M380 370 c0 -23 22 -27 39 -7 13 16 5 27 -21 27 -11 0 -18 -7 -18
-20z"/>
<path d="M2617 184 c-12 -13 -7 -52 7 -57 18 -7 39 17 34 40 -3 18 -29 29 -41
17z"/>
</g>
</svg>
